<svg xmlns="http://www.w3.org/2000/svg" width="446" height="208" fill="none" viewBox="0 0 446 208"><g clip-path="url(#a)"><path fill="url(#b)" d="M18.222 23.675c66.877-3.9 134.173-5.466 201.133-3.38 37.185 1.158 80.292.247 115.655 13.548 33.024 12.422-19.006 46.068-31.798 55.203-21.265 15.19-146.852 88.37-70.869 113.401 35.973 11.85 82.337-2.004 117.998-8.724 52.559-9.903 107.19-23.121 161.025-19.36 17.096 1.195 62.097 6.046 57.942 30.808-3.004 17.903-26.172 32.45-39.649 41.92-16.318 11.466-79.509 35.783-61.903 63.491 8.244 12.976 27.418 17.019 41.393 18.586 32.812 3.678 64.055-5.355 96.111-10.534 18.747-3.028 171.327-15.795 153.351 27.262-8.662 20.744-37.61 34.687-55.745 45.566-14.194 8.516-38.351 18.706-45.403 35.106-13.066 30.378 36.791 35.65 54.396 34.407 48.724-3.438 96.156-18.956 144.232-26.829 22.483-3.681 46.752-7.408 69.267-2.075 14.614 3.461 36.726 10.824 35.148 29.272-1.013 11.852-11.844 22.582-20.269 29.769-21.961 18.733-48.796 41.411-48.284 73.44.621 38.867 48.98 47.264 78.972 47.624 57.585.69 116.165-7.779 173.145-15.187 48.04-6.245 95.96-13.449 143.74-21.402 8.09-1.345 16.18-2.703 24.26-4.127 8.07-1.423-4.6-13.009-10.56-11.957-85.75 15.122-172.27 27.814-258.98 35.821-30.9 2.853-143.953 23.86-133.927-32.913 2.747-15.554 12.686-30.314 23.184-41.77 12.458-13.591 30.17-22.071 39.479-38.561 21.65-38.355-31.843-60.442-61.579-63.897-46.089-5.357-94.859 9.747-139.483 19.251-23.37 4.977-47.284 10.683-71.246 11.643-6.194.249-17.618 1.591-23.005-2.288-10.421-7.504.969-17.964 7.451-23.331 17.867-14.794 39.856-24.342 58.857-37.579 12.72-8.862 34.475-23.912 34.437-41.621-.079-34.991-64.438-40.371-87.608-42.064-30.325-2.216-61.118-.633-91.161 3.962-33.552 5.132-69.439 17.928-103.55 9.473-33.467-8.296 4.923-30.07 17.916-37.97 18-10.944 36.324-22.165 51.973-36.379 24.755-22.488 28.91-47.975-3.842-64.866-40.635-20.956-90.43-15.885-134.02-9.833-50.79 7.053-100.707 20.308-151.712 25.754-10.976 1.172-42.639 6.686-49.902-5.292-6.678-11.018 10.107-26.2 16.903-32.467 27.735-25.566 61.661-43.538 91.19-66.84 15.197-11.99 42.177-33.259 22.559-52.994-18.995-19.107-56.347-20.457-81.2-22.937C193.165 3.71 110.508 6.652 29.24 10.502c-6.072.287-12.144.584-18.213.938-10.181.594.968 12.598 7.195 12.235Z"/></g><defs><linearGradient id="b" x1="160.388" x2="1314.9" y1="-3.406" y2="661.838" gradientUnits="userSpaceOnUse"><stop stop-color="#fff" stop-opacity="0"/><stop offset=".48" stop-color="#F37362"/><stop offset=".905" stop-color="#fff" stop-opacity="0"/></linearGradient><clipPath id="a"><path fill="#fff" d="M0 0h446v208H0z"/></clipPath></defs></svg>