<svg xmlns="http://www.w3.org/2000/svg" width="760" height="530" fill="none" viewBox="0 0 760 530"><g clip-path="url(#a)"><path fill="url(#b)" d="M-1227.27-87.161c-7.09 36.417-.16 78.003 19.92 109.154 50.36 78.182 161.58 73.48 241.524 59.1 168.468-30.284 328.801-96.67 498.051-125.76C-311.494-71.536-130.441-75.683-10.57 45.707 98.614 156.272 142.717 331.011 62.758 470.141c-45.011 78.271-162.871 188.27-263.232 144.7-79.429-34.493-19.307-139.17 15.958-183.545C-111.678 339.638-.6 275.759 113.019 250.914c157.528-34.393 335.28 7.367 462.656 105.901 53.847 41.704 107.443 97.897 134.72 161.627 5.444 12.682 35.57 11.864 28.689-4.196-82.118-191.948-319.932-295.719-516.236-297.803-128.77-1.393-256.864 44.506-357.283 124.854-61.434 49.176-144.664 133.678-134.759 220.809 9.772 86.104 117.137 93.096 181.786 71.72 114.259-37.765 201.261-149.733 218.943-267.229C154.382 214.695 66.757 51.074-64.213-25.257c-142.779-83.23-321.551-62.512-475.921-29.75-98.107 20.836-194.451 49.104-290.878 76.46-87.43 24.776-189.798 63.09-281.628 39.115-63.03-16.43-96.87-77.031-84.58-140.11 2.84-14.586-27.23-22.042-30.05-7.62Z"/></g><defs><linearGradient id="b" x1="-1064.23" x2="824.864" y1="1.948" y2="467.112" gradientUnits="userSpaceOnUse"><stop stop-color="#fff" stop-opacity="0"/><stop offset=".535" stop-color="#F37362"/><stop offset=".905" stop-color="#fff" stop-opacity="0"/></linearGradient><clipPath id="a"><path fill="#fff" d="M0 0h760v530H0z"/></clipPath></defs></svg>