<svg xmlns="http://www.w3.org/2000/svg" width="1459" height="1024" fill="none" viewBox="0 0 1459 1024"><path fill="url(#a)" d="M0 0h1v1024H0z"/><path fill="url(#b)" d="M81 0h1v1024h-1z"/><path fill="url(#c)" d="M162 0h1v1024h-1z"/><path fill="url(#d)" d="M243 0h1v1024h-1z"/><path fill="url(#e)" d="M324 0h1v1024h-1z"/><path fill="url(#f)" d="M405 0h1v1024h-1z"/><path fill="url(#g)" d="M486 0h1v1024h-1z"/><path fill="url(#h)" d="M567 0h1v1024h-1z"/><path fill="url(#i)" d="M648 0h1v1024h-1z"/><path fill="url(#j)" d="M729 0h1v1024h-1z"/><path fill="url(#k)" d="M810 0h1v1024h-1z"/><path fill="url(#l)" d="M891 0h1v1024h-1z"/><path fill="url(#m)" d="M972 0h1v1024h-1z"/><path fill="url(#n)" d="M1053 0h1v1024h-1z"/><path fill="url(#o)" d="M1134 0h1v1024h-1z"/><path fill="url(#p)" d="M1215 0h1v1024h-1z"/><path fill="url(#q)" d="M1296 0h1v1024h-1z"/><path fill="url(#r)" d="M1377 0h1v1024h-1z"/><path fill="url(#s)" d="M1458 0h1v1024h-1z"/><defs><linearGradient id="a" x1=".5" x2=".5" y1="0" y2="1024" gradientUnits="userSpaceOnUse"><stop stop-color="#fff" stop-opacity=".15"/><stop offset=".745" stop-color="#fff" stop-opacity="0"/></linearGradient><linearGradient id="b" x1="81.5" x2="81.5" y1="0" y2="1024" gradientUnits="userSpaceOnUse"><stop stop-color="#fff" stop-opacity=".15"/><stop offset=".745" stop-color="#fff" stop-opacity="0"/></linearGradient><linearGradient id="c" x1="162.5" x2="162.5" y1="0" y2="1024" gradientUnits="userSpaceOnUse"><stop stop-color="#fff" stop-opacity=".15"/><stop offset=".745" stop-color="#fff" stop-opacity="0"/></linearGradient><linearGradient id="d" x1="243.5" x2="243.5" y1="0" y2="1024" gradientUnits="userSpaceOnUse"><stop stop-color="#fff" stop-opacity=".15"/><stop offset=".745" stop-color="#fff" stop-opacity="0"/></linearGradient><linearGradient id="e" x1="324.5" x2="324.5" y1="0" y2="1024" gradientUnits="userSpaceOnUse"><stop stop-color="#fff" stop-opacity=".15"/><stop offset=".745" stop-color="#fff" stop-opacity="0"/></linearGradient><linearGradient id="f" x1="405.5" x2="405.5" y1="0" y2="1024" gradientUnits="userSpaceOnUse"><stop stop-color="#fff" stop-opacity=".15"/><stop offset=".745" stop-color="#fff" stop-opacity="0"/></linearGradient><linearGradient id="g" x1="486.5" x2="486.5" y1="0" y2="1024" gradientUnits="userSpaceOnUse"><stop stop-color="#fff" stop-opacity=".15"/><stop offset=".745" stop-color="#fff" stop-opacity="0"/></linearGradient><linearGradient id="h" x1="567.5" x2="567.5" y1="0" y2="1024" gradientUnits="userSpaceOnUse"><stop stop-color="#fff" stop-opacity=".15"/><stop offset=".745" stop-color="#fff" stop-opacity="0"/></linearGradient><linearGradient id="i" x1="648.5" x2="648.5" y1="0" y2="1024" gradientUnits="userSpaceOnUse"><stop stop-color="#fff" stop-opacity=".15"/><stop offset=".745" stop-color="#fff" stop-opacity="0"/></linearGradient><linearGradient id="j" x1="729.5" x2="729.5" y1="0" y2="1024" gradientUnits="userSpaceOnUse"><stop stop-color="#fff" stop-opacity=".15"/><stop offset=".745" stop-color="#fff" stop-opacity="0"/></linearGradient><linearGradient id="k" x1="810.5" x2="810.5" y1="0" y2="1024" gradientUnits="userSpaceOnUse"><stop stop-color="#fff" stop-opacity=".15"/><stop offset=".745" stop-color="#fff" stop-opacity="0"/></linearGradient><linearGradient id="l" x1="891.5" x2="891.5" y1="0" y2="1024" gradientUnits="userSpaceOnUse"><stop stop-color="#fff" stop-opacity=".15"/><stop offset=".745" stop-color="#fff" stop-opacity="0"/></linearGradient><linearGradient id="m" x1="972.5" x2="972.5" y1="0" y2="1024" gradientUnits="userSpaceOnUse"><stop stop-color="#fff" stop-opacity=".15"/><stop offset=".745" stop-color="#fff" stop-opacity="0"/></linearGradient><linearGradient id="n" x1="1053.5" x2="1053.5" y1="0" y2="1024" gradientUnits="userSpaceOnUse"><stop stop-color="#fff" stop-opacity=".15"/><stop offset=".745" stop-color="#fff" stop-opacity="0"/></linearGradient><linearGradient id="o" x1="1134.5" x2="1134.5" y1="0" y2="1024" gradientUnits="userSpaceOnUse"><stop stop-color="#fff" stop-opacity=".15"/><stop offset=".745" stop-color="#fff" stop-opacity="0"/></linearGradient><linearGradient id="p" x1="1215.5" x2="1215.5" y1="0" y2="1024" gradientUnits="userSpaceOnUse"><stop stop-color="#fff" stop-opacity=".15"/><stop offset=".745" stop-color="#fff" stop-opacity="0"/></linearGradient><linearGradient id="q" x1="1296.5" x2="1296.5" y1="0" y2="1024" gradientUnits="userSpaceOnUse"><stop stop-color="#fff" stop-opacity=".15"/><stop offset=".745" stop-color="#fff" stop-opacity="0"/></linearGradient><linearGradient id="r" x1="1377.5" x2="1377.5" y1="0" y2="1024" gradientUnits="userSpaceOnUse"><stop stop-color="#fff" stop-opacity=".15"/><stop offset=".745" stop-color="#fff" stop-opacity="0"/></linearGradient><linearGradient id="s" x1="1458.5" x2="1458.5" y1="0" y2="1024" gradientUnits="userSpaceOnUse"><stop stop-color="#fff" stop-opacity=".15"/><stop offset=".745" stop-color="#fff" stop-opacity="0"/></linearGradient></defs></svg>